<svg width="16" height="17" viewBox="0 0 16 17" fill="none" xmlns="http://www.w3.org/2000/svg">
<path d="M14.0002 8.33334H2.00016C1.36016 8.33334 0.833496 7.80667 0.833496 7.16668V4.95334C0.833496 4.5 1.14681 4.04001 1.56681 3.87334L7.56681 1.47336C7.82015 1.37336 8.18018 1.37336 8.43351 1.47336L14.4335 3.87334C14.8535 4.04001 15.1668 4.50667 15.1668 4.95334V7.16668C15.1668 7.80667 14.6402 8.33334 14.0002 8.33334ZM8.00016 2.39336C7.9735 2.39336 7.94685 2.39333 7.93351 2.39999L1.94014 4.80002C1.90014 4.82002 1.8335 4.90667 1.8335 4.95334V7.16668C1.8335 7.26001 1.90683 7.33334 2.00016 7.33334H14.0002C14.0935 7.33334 14.1668 7.26001 14.1668 7.16668V4.95334C14.1668 4.90667 14.1068 4.82002 14.0602 4.80002L8.06018 2.39999C8.04685 2.39333 8.02683 2.39336 8.00016 2.39336Z" fill="white"/>
<path d="M14.6668 15.6667H1.3335C1.06016 15.6667 0.833496 15.44 0.833496 15.1667V13.1667C0.833496 12.5267 1.36016 12 2.00016 12H14.0002C14.6402 12 15.1668 12.5267 15.1668 13.1667V15.1667C15.1668 15.44 14.9402 15.6667 14.6668 15.6667ZM1.8335 14.6667H14.1668V13.1667C14.1668 13.0733 14.0935 13 14.0002 13H2.00016C1.90683 13 1.8335 13.0733 1.8335 13.1667V14.6667Z" fill="white"/>
<path d="M2.6665 13C2.39317 13 2.1665 12.7733 2.1665 12.5V7.83333C2.1665 7.56 2.39317 7.33333 2.6665 7.33333C2.93984 7.33333 3.1665 7.56 3.1665 7.83333V12.5C3.1665 12.7733 2.93984 13 2.6665 13Z" fill="white"/>
<path d="M5.3335 13C5.06016 13 4.8335 12.7733 4.8335 12.5V7.83333C4.8335 7.56 5.06016 7.33333 5.3335 7.33333C5.60683 7.33333 5.8335 7.56 5.8335 7.83333V12.5C5.8335 12.7733 5.60683 13 5.3335 13Z" fill="white"/>
<path d="M8 13C7.72667 13 7.5 12.7733 7.5 12.5V7.83333C7.5 7.56 7.72667 7.33333 8 7.33333C8.27333 7.33333 8.5 7.56 8.5 7.83333V12.5C8.5 12.7733 8.27333 13 8 13Z" fill="white"/>
<path d="M10.6665 13C10.3932 13 10.1665 12.7733 10.1665 12.5V7.83333C10.1665 7.56 10.3932 7.33333 10.6665 7.33333C10.9398 7.33333 11.1665 7.56 11.1665 7.83333V12.5C11.1665 12.7733 10.9398 13 10.6665 13Z" fill="white"/>
<path d="M13.3335 13C13.0602 13 12.8335 12.7733 12.8335 12.5V7.83333C12.8335 7.56 13.0602 7.33333 13.3335 7.33333C13.6068 7.33333 13.8335 7.56 13.8335 7.83333V12.5C13.8335 12.7733 13.6068 13 13.3335 13Z" fill="white"/>
<path d="M15.3332 15.6667H0.666504C0.393171 15.6667 0.166504 15.44 0.166504 15.1667C0.166504 14.8933 0.393171 14.6667 0.666504 14.6667H15.3332C15.6065 14.6667 15.8332 14.8933 15.8332 15.1667C15.8332 15.44 15.6065 15.6667 15.3332 15.6667Z" fill="white"/>
<path d="M8 6.66667C7.17333 6.66667 6.5 5.99333 6.5 5.16667C6.5 4.34 7.17333 3.66667 8 3.66667C8.82667 3.66667 9.5 4.34 9.5 5.16667C9.5 5.99333 8.82667 6.66667 8 6.66667ZM8 4.66667C7.72667 4.66667 7.5 4.89333 7.5 5.16667C7.5 5.44 7.72667 5.66667 8 5.66667C8.27333 5.66667 8.5 5.44 8.5 5.16667C8.5 4.89333 8.27333 4.66667 8 4.66667Z" fill="white"/>
</svg>
