<svg width="16" height="17" viewBox="0 0 16 17" fill="none" xmlns="http://www.w3.org/2000/svg">
<path d="M1.3335 9.05334V10.5C1.3335 13.8333 2.66683 15.1667 6.00016 15.1667H10.0002C13.3335 15.1667 14.6668 13.8333 14.6668 10.5V6.5C14.6668 3.16666 13.3335 1.83333 10.0002 1.83333H6.00016C2.66683 1.83333 1.3335 3.16666 1.3335 6.5" stroke="white" stroke-linecap="round" stroke-linejoin="round"/>
<path d="M6.74003 7.93335H4.97337C4.55337 7.93335 4.21338 8.27332 4.21338 8.69332V12.1066H6.74003V7.93335V7.93335Z" stroke="white" stroke-miterlimit="10" stroke-linecap="round" stroke-linejoin="round"/>
<path d="M8.50673 4.89998H7.49339C7.07339 4.89998 6.7334 5.23999 6.7334 5.65999V12.1H9.26007V5.65999C9.26007 5.23999 8.92673 4.89998 8.50673 4.89998Z" stroke="white" stroke-miterlimit="10" stroke-linecap="round" stroke-linejoin="round"/>
<path d="M11.0333 9.06665H9.2666V12.1H11.7933V9.82666C11.7866 9.40666 11.4466 9.06665 11.0333 9.06665Z" stroke="white" stroke-miterlimit="10" stroke-linecap="round" stroke-linejoin="round"/>
</svg>
