<svg width="20" height="20" viewBox="0 0 20 20" fill="none" xmlns="http://www.w3.org/2000/svg">
<path fill-rule="evenodd" clip-rule="evenodd" d="M8.33333 13.3333C8.33333 13.7917 7.95833 14.1667 7.5 14.1667C7.04167 14.1667 6.66667 13.7917 6.66667 13.3333V10C6.66667 9.54167 7.04167 9.16667 7.5 9.16667C7.95833 9.16667 8.33333 9.54167 8.33333 10V13.3333ZM13.3333 13.3333C13.3333 13.7917 12.9583 14.1667 12.5 14.1667C12.0417 14.1667 11.6667 13.7917 11.6667 13.3333V10C11.6667 9.54167 12.0417 9.16667 12.5 9.16667C12.9583 9.16667 13.3333 9.54167 13.3333 10V13.3333ZM15 15.8333C15 16.2925 14.6267 16.6667 14.1667 16.6667H5.83333C5.37333 16.6667 5 16.2925 5 15.8333V6.66667H15V15.8333ZM8.33333 3.60667C8.33333 3.4775 8.51167 3.33333 8.75 3.33333H11.25C11.4883 3.33333 11.6667 3.4775 11.6667 3.60667V5H8.33333V3.60667ZM17.5 5H16.6667H13.3333V3.60667C13.3333 2.53667 12.3992 1.66667 11.25 1.66667H8.75C7.60083 1.66667 6.66667 2.53667 6.66667 3.60667V5H3.33333H2.5C2.04167 5 1.66667 5.375 1.66667 5.83333C1.66667 6.29167 2.04167 6.66667 2.5 6.66667H3.33333V15.8333C3.33333 17.2117 4.455 18.3333 5.83333 18.3333H14.1667C15.545 18.3333 16.6667 17.2117 16.6667 15.8333V6.66667H17.5C17.9583 6.66667 18.3333 6.29167 18.3333 5.83333C18.3333 5.375 17.9583 5 17.5 5V5Z" fill="#404040"/>
<mask id="mask0_1_37" style="mask-type:alpha" maskUnits="userSpaceOnUse" x="1" y="1" width="18" height="18">
<path fill-rule="evenodd" clip-rule="evenodd" d="M8.33333 13.3333C8.33333 13.7917 7.95833 14.1667 7.5 14.1667C7.04167 14.1667 6.66667 13.7917 6.66667 13.3333V10C6.66667 9.54167 7.04167 9.16667 7.5 9.16667C7.95833 9.16667 8.33333 9.54167 8.33333 10V13.3333ZM13.3333 13.3333C13.3333 13.7917 12.9583 14.1667 12.5 14.1667C12.0417 14.1667 11.6667 13.7917 11.6667 13.3333V10C11.6667 9.54167 12.0417 9.16667 12.5 9.16667C12.9583 9.16667 13.3333 9.54167 13.3333 10V13.3333ZM15 15.8333C15 16.2925 14.6267 16.6667 14.1667 16.6667H5.83333C5.37333 16.6667 5 16.2925 5 15.8333V6.66667H15V15.8333ZM8.33333 3.60667C8.33333 3.4775 8.51167 3.33333 8.75 3.33333H11.25C11.4883 3.33333 11.6667 3.4775 11.6667 3.60667V5H8.33333V3.60667ZM17.5 5H16.6667H13.3333V3.60667C13.3333 2.53667 12.3992 1.66667 11.25 1.66667H8.75C7.60083 1.66667 6.66667 2.53667 6.66667 3.60667V5H3.33333H2.5C2.04167 5 1.66667 5.375 1.66667 5.83333C1.66667 6.29167 2.04167 6.66667 2.5 6.66667H3.33333V15.8333C3.33333 17.2117 4.455 18.3333 5.83333 18.3333H14.1667C15.545 18.3333 16.6667 17.2117 16.6667 15.8333V6.66667H17.5C17.9583 6.66667 18.3333 6.29167 18.3333 5.83333C18.3333 5.375 17.9583 5 17.5 5V5Z" fill="white"/>
</mask>
<g mask="url(#mask0_1_37)">
</g>
</svg>
