<svg width="20" height="20" viewBox="0 0 20 20" fill="none" xmlns="http://www.w3.org/2000/svg">
<path fill-rule="evenodd" clip-rule="evenodd" d="M5.0855 13.2279L7.56633 13.0021L12.233 8.33125L9.98633 6.08375L5.3055 10.7646L5.0855 13.2279ZM11.103 4.96792L13.3488 7.21375L14.9713 5.58875L12.7263 3.34375L11.103 4.96792ZM3.57718 14.7379C3.40218 14.5629 3.31468 14.3196 3.33635 14.0729L3.65218 10.5979C3.68718 10.2171 3.85552 9.85792 4.12718 9.58625L11.6239 2.08958C12.2089 1.50208 13.2697 1.53125 13.8872 2.14708L16.1689 4.42875L16.1697 4.42958C16.8072 5.06792 16.833 6.08292 16.2264 6.69125L8.72885 14.1887C8.45802 14.4596 8.09885 14.6279 7.71718 14.6629L4.24218 14.9787C4.21718 14.9804 4.19218 14.9812 4.16635 14.9812C3.94718 14.9812 3.73468 14.8946 3.57718 14.7379V14.7379ZM16.6663 17.4812C16.6663 17.9396 16.2913 18.3146 15.833 18.3146H4.16633C3.70883 18.3146 3.333 17.9396 3.333 17.4812C3.333 17.0237 3.70883 16.6479 4.16633 16.6479H15.833C16.2913 16.6479 16.6663 17.0237 16.6663 17.4812V17.4812Z" fill="#404040"/>
</svg>
