<svg width="17" height="17" viewBox="0 0 17 17" fill="none" xmlns="http://www.w3.org/2000/svg">
<path d="M12.2287 10.843C13.197 9.52166 13.6307 7.88346 13.443 6.25612C13.2554 4.62878 12.4601 3.13231 11.2165 2.0661C9.97285 0.999892 8.37249 0.442575 6.73557 0.505648C5.09866 0.568721 3.54592 1.24753 2.38801 2.40628C1.23009 3.56502 0.552388 5.11825 0.490486 6.75521C0.428585 8.39216 0.987047 9.99213 2.05415 11.235C3.12124 12.4779 4.61828 13.272 6.24576 13.4586C7.87323 13.6451 9.51112 13.2102 10.8317 12.241H10.8307C10.8607 12.281 10.8927 12.319 10.9287 12.356L14.7787 16.206C14.9662 16.3936 15.2206 16.4991 15.4859 16.4992C15.7512 16.4993 16.0056 16.394 16.1932 16.2065C16.3809 16.019 16.4863 15.7646 16.4864 15.4993C16.4865 15.2341 16.3812 14.9796 16.1937 14.792L12.3437 10.942C12.308 10.9058 12.2695 10.8724 12.2287 10.842V10.843ZM12.4867 6.99897C12.4867 7.72124 12.3445 8.43644 12.0681 9.10373C11.7917 9.77102 11.3865 10.3773 10.8758 10.8881C10.3651 11.3988 9.75879 11.8039 9.0915 12.0803C8.42421 12.3567 7.70901 12.499 6.98674 12.499C6.26447 12.499 5.54927 12.3567 4.88198 12.0803C4.21469 11.8039 3.60837 11.3988 3.09765 10.8881C2.58693 10.3773 2.1818 9.77102 1.9054 9.10373C1.629 8.43644 1.48674 7.72124 1.48674 6.99897C1.48674 5.54028 2.0662 4.14133 3.09765 3.10988C4.1291 2.07843 5.52805 1.49897 6.98674 1.49897C8.44543 1.49897 9.84437 2.07843 10.8758 3.10988C11.9073 4.14133 12.4867 5.54028 12.4867 6.99897Z" fill="#8A8A8A"/>
</svg>
