<svg width="16" height="17" viewBox="0 0 16 17" fill="none" xmlns="http://www.w3.org/2000/svg">
<path d="M8.00671 11.8333C7.44005 11.8333 6.86671 11.6867 6.42005 11.4L2.40671 8.77999C1.66005 8.29333 1.21338 7.47333 1.21338 6.57999C1.21338 5.68666 1.66005 4.86666 2.40671 4.37999L6.42671 1.76666C7.32005 1.18666 8.71338 1.18666 9.60005 1.77333L13.5934 4.39333C14.3334 4.87999 14.78 5.69999 14.78 6.58666C14.78 7.47333 14.3334 8.29333 13.5934 8.77999L9.60005 11.4C9.15338 11.6933 8.58005 11.8333 8.00671 11.8333ZM8.00671 2.33333C7.62671 2.33333 7.24671 2.41999 6.97338 2.60666L2.96005 5.21999C2.49338 5.52666 2.22005 6.01999 2.22005 6.57999C2.22005 7.13999 2.48671 7.63333 2.96005 7.93999L6.97338 10.56C7.52671 10.92 8.50005 10.92 9.05338 10.56L13.0467 7.93999C13.5134 7.63333 13.78 7.13999 13.78 6.57999C13.78 6.01999 13.5134 5.52666 13.0467 5.21999L9.05338 2.59999C8.77338 2.42666 8.39338 2.33333 8.00671 2.33333Z" fill="white"/>
<path d="M7.99996 15.6667C7.70662 15.6667 7.40662 15.6267 7.16662 15.5467L5.03996 14.84C4.03329 14.5067 3.23996 13.4067 3.24662 12.3467L3.25329 9.22C3.25329 8.94667 3.47996 8.72 3.75329 8.72C4.02662 8.72 4.25329 8.94667 4.25329 9.22L4.24662 12.3467C4.24662 12.9733 4.76662 13.6933 5.35996 13.8933L7.48662 14.6C7.75329 14.6867 8.24662 14.6867 8.51329 14.6L10.64 13.8933C11.2333 13.6933 11.7533 12.9733 11.7533 12.3533V9.26C11.7533 8.98667 11.98 8.76 12.2533 8.76C12.5266 8.76 12.7533 8.98667 12.7533 9.26V12.3533C12.7533 13.4133 11.9666 14.5067 10.96 14.8467L8.83329 15.5533C8.59329 15.6267 8.29329 15.6667 7.99996 15.6667Z" fill="white"/>
<path d="M14.2666 11C13.9933 11 13.7666 10.7733 13.7666 10.5V6.5C13.7666 6.22667 13.9933 6 14.2666 6C14.5399 6 14.7666 6.22667 14.7666 6.5V10.5C14.7666 10.7733 14.5399 11 14.2666 11Z" fill="white"/>
</svg>
